<svg width="17" height="17" viewBox="0 0 17 17" fill="none" xmlns="http://www.w3.org/2000/svg">
<g clip-path="url(#clip0_1_13671)">
<path d="M11.2145 5.28154C11.2142 5.20297 11.1497 5.13893 11.0711 5.13923L9.89259 5.14909L8.12569 7.27193L6.34441 5.16444L5.16404 5.16359C5.08547 5.16389 5.02142 5.22664 5.02173 5.307C5.02186 5.34092 5.03448 5.37302 5.05602 5.39972L7.38979 8.15868L5.07717 10.9336C5.05569 10.9599 5.04385 10.9927 5.0436 11.0266C5.0439 11.1052 5.10843 11.1692 5.187 11.1689L6.36733 11.159L8.13244 9.0362L9.91372 11.1437L11.0923 11.1445C11.1709 11.1442 11.2349 11.0815 11.2346 11.0011C11.2345 10.9672 11.2219 10.9351 11.2003 10.9084L8.87013 8.15123L11.1827 5.37452C11.2041 5.34943 11.2147 5.31546 11.2145 5.28154Z" fill="#E77C40"/>
<path d="M8.09827 0.118344C3.68044 0.135232 0.112021 3.73104 0.128909 8.14887C0.145798 12.5667 3.74161 16.1351 8.15943 16.1182C12.5773 16.1013 16.1457 12.5055 16.1288 8.0877C16.1119 3.66988 12.5161 0.101456 8.09827 0.118344ZM8.15424 14.7611C4.48641 14.7751 1.50006 11.8115 1.48604 8.14368C1.47202 4.47585 4.43563 1.4895 8.10346 1.47548C11.7713 1.46146 14.7576 4.42506 14.7717 8.09289C14.7857 11.7607 11.8221 14.7471 8.15424 14.7611Z" fill="#E77C40"/>
</g>
<defs>
<clipPath id="clip0_1_13671">
<rect width="16" height="16" fill="white" transform="translate(0.0983276 0.148926) rotate(-0.219027)"/>
</clipPath>
</defs>
</svg>
